<?xml version="1.0" encoding="utf-8"?>
<!-- Generator: Adobe Illustrator 16.0.0, SVG Export Plug-In . SVG Version: 6.00 Build 0)  -->
<!DOCTYPE svg PUBLIC "-//W3C//DTD SVG 1.1//EN" "http://www.w3.org/Graphics/SVG/1.1/DTD/svg11.dtd">
<svg version="1.1" id="Layer_1" xmlns="http://www.w3.org/2000/svg" xmlns:xlink="http://www.w3.org/1999/xlink" x="0px" y="0px"
	 width="439px" height="192px" viewBox="0 0 439 192" enable-background="new 0 0 439 192" xml:space="preserve">
<rect x="92.397" y="127.666" fill="#2FC0F0" width="21" height="57.343"/>
<rect x="145.027" y="105.221" fill="#6E6EB2" width="21" height="79.788"/>
<rect x="197.658" y="115.666" fill="#5DC4BD" width="21" height="69.343"/>
<rect x="250.288" y="84.003" fill="#EE4E81" width="21" height="101.006"/>
<rect x="355.548" y="52.666" fill="#FAAF44" width="21" height="132.343"/>
<rect x="302.919" y="76.666" fill="#F06848" width="21" height="108.343"/>
<rect x="408.178" y="74.018" fill="#2FC0F0" width="21" height="110.991"/>
<text transform="matrix(1 0 0 1 5.9443 26.4932)" fill="#A1A3A6" font-family="'Telegrafico'" font-size="30.0226">wezdez</text>
<rect x="39.768" y="148.087" fill="#FAAF44" width="21" height="36.922"/>
<polyline fill="none" stroke="#E2E3E4" stroke-miterlimit="10" points="50.268,111.166 152.49,76.666 206.852,84.003 
	366.048,25.166 418.678,57.166 "/>
<circle fill="#E2E3E4" cx="50.269" cy="111.166" r="2.648"/>
<circle fill="#E2E3E4" cx="152.166" cy="76.666" r="2.648"/>
<circle fill="#E2E3E4" cx="208.061" cy="84.003" r="2.648"/>
<circle fill="#E2E3E4" cx="366.048" cy="25.166" r="2.648"/>
<circle fill="#E2E3E4" cx="418.679" cy="57.166" r="2.648"/>
<path fill="#919395" d="M8.908,181.447l0.407-4.14h3.598v0.276H9.571l-0.318,3.222c0.219-0.219,0.456-0.384,0.717-0.495
	c0.257-0.111,0.642-0.174,1.145-0.188c0.605-0.019,1.104,0.188,1.497,0.62c0.392,0.432,0.589,1.011,0.589,1.735
	c0,0.775-0.184,1.391-0.548,1.847c-0.364,0.455-0.931,0.684-1.695,0.684c-0.615,0-1.126-0.175-1.532-0.526
	c-0.406-0.348-0.602-0.865-0.584-1.549l0.01-0.031h0.246c0,0.596,0.166,1.051,0.5,1.36c0.334,0.311,0.787,0.465,1.36,0.465
	c0.675,0,1.168-0.186,1.483-0.56c0.314-0.369,0.473-0.932,0.473-1.679c0-0.64-0.158-1.143-0.473-1.512
	c-0.315-0.367-0.754-0.553-1.322-0.553c-0.555,0-0.993,0.093-1.312,0.278c-0.317,0.188-0.546,0.463-0.685,0.826L8.908,181.447z"/>
<g>
	<path fill="#919395" d="M8.187,157.768H7.903v-7.429l-1.918,0.406v-0.24l2.201-0.438V157.768z"/>
	<path fill="#919395" d="M16.054,155.088c0,0.872-0.201,1.556-0.605,2.05c-0.402,0.492-0.969,0.74-1.699,0.74
		c-0.727,0-1.295-0.248-1.705-0.743c-0.41-0.494-0.616-1.177-0.616-2.047v-2.23c0-0.869,0.204-1.551,0.608-2.048
		c0.404-0.495,0.973-0.743,1.703-0.743c0.727,0,1.293,0.248,1.701,0.743c0.408,0.497,0.613,1.179,0.613,2.048V155.088z
		 M15.772,152.857c0-0.765-0.176-1.375-0.528-1.829c-0.351-0.453-0.854-0.681-1.505-0.681c-0.658,0-1.16,0.228-1.508,0.681
		c-0.348,0.454-0.522,1.064-0.522,1.829v2.22c0,0.753,0.179,1.363,0.53,1.827c0.354,0.461,0.854,0.693,1.51,0.693
		c0.65,0,1.15-0.23,1.5-0.693c0.348-0.46,0.523-1.07,0.523-1.827V152.857z"/>
</g>
<g>
	<path fill="#919395" d="M10.481,130.584H5.94v-0.281l2.59-2.982c0.462-0.535,0.788-0.982,0.975-1.344
		c0.188-0.359,0.283-0.713,0.283-1.055c0-0.564-0.144-0.998-0.427-1.303c-0.286-0.305-0.726-0.455-1.321-0.455
		c-0.621,0-1.104,0.183-1.443,0.549c-0.34,0.364-0.512,0.836-0.512,1.417H5.847l-0.012-0.032c-0.017-0.615,0.178-1.138,0.582-1.569
		c0.404-0.431,0.945-0.646,1.623-0.646c0.623,0,1.116,0.177,1.484,0.531c0.366,0.354,0.551,0.856,0.551,1.508
		c0,0.419-0.137,0.849-0.41,1.286c-0.274,0.438-0.659,0.947-1.155,1.527l-2.175,2.54l0.012,0.027h4.135V130.584z"/>
	<path fill="#919395" d="M16.206,127.904c0,0.871-0.201,1.554-0.605,2.047c-0.402,0.494-0.969,0.741-1.698,0.741
		c-0.729,0-1.296-0.248-1.706-0.743c-0.41-0.496-0.615-1.178-0.615-2.045v-2.233c0-0.868,0.203-1.552,0.607-2.045
		c0.404-0.496,0.972-0.743,1.702-0.743c0.728,0,1.294,0.247,1.702,0.743c0.408,0.493,0.613,1.177,0.613,2.045V127.904z
		 M15.925,125.671c0-0.764-0.176-1.372-0.527-1.827c-0.352-0.452-0.854-0.68-1.507-0.68c-0.657,0-1.159,0.228-1.507,0.68
		c-0.348,0.455-0.521,1.063-0.521,1.827v2.223c0,0.753,0.178,1.361,0.528,1.825c0.354,0.461,0.856,0.693,1.512,0.693
		c0.649,0,1.149-0.232,1.5-0.692c0.347-0.459,0.522-1.069,0.522-1.826V125.671z"/>
</g>
<g>
	<path fill="#919395" d="M7.95,99.379c0.635,0,1.137-0.158,1.502-0.475c0.363-0.316,0.547-0.707,0.547-1.168
		c0-0.511-0.158-0.931-0.472-1.261c-0.316-0.332-0.778-0.497-1.39-0.497c-0.562,0-1.031,0.165-1.402,0.497
		c-0.373,0.33-0.559,0.769-0.559,1.318h-0.24l-0.011-0.031c-0.018-0.616,0.188-1.114,0.618-1.495c0.43-0.38,0.961-0.57,1.594-0.57
		c0.651,0,1.173,0.186,1.561,0.557c0.389,0.369,0.582,0.87,0.582,1.503c0,0.4-0.127,0.758-0.378,1.073
		c-0.25,0.316-0.593,0.545-1.019,0.684c0.492,0.122,0.877,0.344,1.15,0.663c0.275,0.319,0.412,0.722,0.412,1.21
		c0,0.659-0.209,1.177-0.631,1.555c-0.421,0.379-0.965,0.567-1.631,0.567c-0.644,0-1.211-0.192-1.705-0.571
		c-0.494-0.381-0.732-0.92-0.715-1.619l0.013-0.031h0.237c0,0.562,0.207,1.026,0.619,1.392s0.927,0.549,1.551,0.549
		c0.625,0,1.111-0.163,1.458-0.483c0.349-0.322,0.522-0.768,0.522-1.338c0-0.592-0.199-1.027-0.596-1.311
		c-0.398-0.283-0.938-0.425-1.619-0.425H7.37v-0.292H7.95z"/>
	<path fill="#919395" d="M16.277,100.719c0,0.873-0.202,1.555-0.606,2.049c-0.402,0.493-0.969,0.741-1.699,0.741
		c-0.728,0-1.295-0.248-1.705-0.745c-0.41-0.494-0.614-1.176-0.614-2.045v-2.231c0-0.868,0.202-1.552,0.605-2.047
		c0.405-0.495,0.974-0.743,1.703-0.743c0.728,0,1.294,0.248,1.702,0.743s0.614,1.179,0.614,2.047V100.719z M15.994,98.487
		c0-0.764-0.175-1.374-0.526-1.828c-0.352-0.452-0.854-0.681-1.507-0.681c-0.657,0-1.159,0.229-1.507,0.681
		c-0.348,0.454-0.521,1.064-0.521,1.828v2.221c0,0.754,0.179,1.363,0.528,1.825c0.354,0.463,0.857,0.694,1.511,0.694
		c0.65,0,1.15-0.231,1.5-0.692c0.348-0.46,0.522-1.068,0.522-1.827V98.487z"/>
</g>
<g>
	<path fill="#919395" d="M9.63,73.863h1.313v0.281H9.63v2.071H9.349v-2.071H5.667v-0.155l3.625-5.367H9.63V73.863z M6.106,73.863
		h3.242v-4.844l-0.03-0.01L8.91,69.68L6.106,73.863z"/>
	<path fill="#919395" d="M16.372,73.535c0,0.87-0.201,1.554-0.604,2.049c-0.404,0.491-0.971,0.74-1.7,0.74
		c-0.728,0-1.296-0.249-1.706-0.744c-0.41-0.494-0.615-1.175-0.615-2.044v-2.232c0-0.869,0.203-1.551,0.607-2.048
		c0.406-0.494,0.973-0.742,1.703-0.742c0.727,0,1.293,0.248,1.703,0.742c0.408,0.497,0.611,1.179,0.611,2.048V73.535z M16.09,71.303
		c0-0.766-0.175-1.374-0.526-1.829c-0.35-0.453-0.853-0.68-1.506-0.68c-0.655,0-1.16,0.227-1.508,0.68
		c-0.348,0.456-0.52,1.063-0.52,1.829v2.219c0,0.755,0.176,1.365,0.527,1.828c0.353,0.46,0.857,0.692,1.511,0.692
		c0.649,0,1.149-0.23,1.5-0.69c0.349-0.462,0.521-1.07,0.521-1.83V71.303z"/>
</g>
<g>
	<path fill="#919395" d="M5.931,45.577l0.406-4.141h3.598v0.276H6.593l-0.318,3.223c0.218-0.219,0.457-0.384,0.717-0.495
		s0.641-0.173,1.145-0.187c0.604-0.019,1.104,0.187,1.496,0.62c0.393,0.43,0.59,1.011,0.59,1.734c0,0.776-0.184,1.39-0.549,1.845
		c-0.363,0.456-0.93,0.684-1.693,0.684c-0.615,0-1.127-0.174-1.533-0.524c-0.406-0.349-0.603-0.867-0.584-1.55l0.01-0.031h0.246
		c0,0.599,0.166,1.053,0.5,1.362c0.334,0.308,0.787,0.463,1.361,0.463c0.674,0,1.168-0.186,1.481-0.558
		c0.316-0.372,0.474-0.932,0.474-1.68c0-0.64-0.157-1.144-0.474-1.512c-0.313-0.368-0.753-0.552-1.319-0.552
		c-0.557,0-0.994,0.092-1.312,0.279C6.51,45.02,6.282,45.296,6.143,45.66L5.931,45.577z"/>
	<path fill="#919395" d="M15.983,46.35c0,0.872-0.203,1.555-0.606,2.047c-0.403,0.497-0.97,0.741-1.699,0.741
		c-0.726,0-1.294-0.248-1.704-0.743c-0.41-0.496-0.615-1.176-0.615-2.045v-2.232c0-0.869,0.2-1.551,0.607-2.046
		c0.404-0.496,0.973-0.744,1.701-0.744c0.727,0,1.294,0.248,1.703,0.744c0.407,0.496,0.613,1.177,0.613,2.046V46.35z M15.7,44.117
		c0-0.765-0.176-1.374-0.526-1.827c-0.351-0.452-0.853-0.682-1.507-0.682c-0.657,0-1.158,0.229-1.507,0.682
		c-0.347,0.453-0.521,1.062-0.521,1.827v2.221c0,0.755,0.176,1.363,0.529,1.826c0.352,0.462,0.855,0.693,1.509,0.693
		c0.649,0,1.149-0.231,1.499-0.691c0.351-0.461,0.523-1.07,0.523-1.828V44.117z"/>
	<path fill="#919395" d="M19.669,45.369h2.508v0.275h-2.508v2.623h-0.287v-2.623h-2.408v-0.275h2.408v-2.626h0.287V45.369z"/>
</g>
</svg>
